<mxfile host="app.diagrams.net" modified="2020-05-27T20:38:11.766Z" agent="5.0 (Macintosh; Intel Mac OS X 10_12_6) AppleWebKit/537.36 (KHTML, like Gecko) Chrome/81.0.4044.138 Safari/537.36" etag="ILx7xc5EIDy8M7hPIfyw" version="13.0.8" type="github">
  <diagram name="Page-1" id="b520641d-4fe3-3701-9064-5fc419738815">
    <mxGraphModel dx="946" dy="597" grid="1" gridSize="10" guides="1" tooltips="1" connect="1" arrows="1" fold="1" page="1" pageScale="1" pageWidth="1100" pageHeight="850" background="#ffffff" math="0" shadow="0">
      <root>
        <mxCell id="0" />
        <mxCell id="1" parent="0" />
        <mxCell id="21ea969265ad0168-36" style="edgeStyle=orthogonalEdgeStyle;html=1;labelBackgroundColor=none;startFill=0;startSize=8;endFill=1;endSize=8;fontFamily=Verdana;fontSize=12;" parent="1" source="21ea969265ad0168-6" edge="1">
          <mxGeometry relative="1" as="geometry">
            <mxPoint x="420" y="120" as="targetPoint" />
            <Array as="points">
              <mxPoint x="240" y="140" />
            </Array>
          </mxGeometry>
        </mxCell>
        <mxCell id="rdV9_6l6kC6E4xn4P61S-1" value="goes to appointment" style="text;html=1;strokeColor=none;fillColor=none;align=center;verticalAlign=middle;whiteSpace=wrap;rounded=0;" parent="1" vertex="1">
          <mxGeometry x="350" y="80" width="40" height="20" as="geometry" />
        </mxCell>
        <mxCell id="rdV9_6l6kC6E4xn4P61S-9" value="" style="endArrow=classic;html=1;entryX=0.567;entryY=-0.022;entryDx=0;entryDy=0;entryPerimeter=0;" parent="1" target="iOxPWpz1RouKTi9r0qk_-1" edge="1">
          <mxGeometry width="50" height="50" relative="1" as="geometry">
            <mxPoint x="519" y="167" as="sourcePoint" />
            <mxPoint x="500" y="220" as="targetPoint" />
          </mxGeometry>
        </mxCell>
        <mxCell id="rdV9_6l6kC6E4xn4P61S-17" value="choose pending appointment" style="text;html=1;strokeColor=none;fillColor=none;align=center;verticalAlign=middle;whiteSpace=wrap;rounded=0;rotation=0;" parent="1" vertex="1">
          <mxGeometry x="530" y="190" width="50" height="20" as="geometry" />
        </mxCell>
        <mxCell id="rdV9_6l6kC6E4xn4P61S-20" value="" style="endArrow=classic;html=1;entryX=0.578;entryY=0;entryDx=0;entryDy=0;entryPerimeter=0;" parent="1" target="mAmqgvCDSEABrybZSbF8-38" edge="1">
          <mxGeometry width="50" height="50" relative="1" as="geometry">
            <mxPoint x="390" y="500" as="sourcePoint" />
            <mxPoint x="390" y="620" as="targetPoint" />
          </mxGeometry>
        </mxCell>
        <mxCell id="rdV9_6l6kC6E4xn4P61S-27" value="" style="ellipse;html=1;shape=startState;fillColor=#000000;strokeColor=#ff0000;" parent="1" vertex="1">
          <mxGeometry x="70" y="97" width="30" height="30" as="geometry" />
        </mxCell>
        <mxCell id="rdV9_6l6kC6E4xn4P61S-28" value="" style="edgeStyle=orthogonalEdgeStyle;html=1;verticalAlign=bottom;endArrow=open;endSize=8;strokeColor=#ff0000;" parent="1" source="rdV9_6l6kC6E4xn4P61S-27" edge="1">
          <mxGeometry relative="1" as="geometry">
            <mxPoint x="160" y="112" as="targetPoint" />
          </mxGeometry>
        </mxCell>
        <mxCell id="rdV9_6l6kC6E4xn4P61S-2" value="Appointments displaying" style="swimlane;html=1;fontStyle=0;childLayout=stackLayout;horizontal=1;startSize=26;fillColor=#e0e0e0;horizontalStack=0;resizeParent=1;resizeLast=0;collapsible=1;marginBottom=0;swimlaneFillColor=#ffffff;align=center;rounded=1;shadow=0;comic=0;labelBackgroundColor=none;strokeWidth=1;fontFamily=Verdana;fontSize=12" parent="1" vertex="1">
          <mxGeometry x="420" y="57" width="210" height="110" as="geometry" />
        </mxCell>
        <mxCell id="rdV9_6l6kC6E4xn4P61S-4" value="&lt;br&gt;do: display Pending Appointment,&lt;br&gt;cancelled appointments" style="text;html=1;strokeColor=none;fillColor=none;spacingLeft=4;spacingRight=4;whiteSpace=wrap;overflow=hidden;rotatable=0;points=[[0,0.5],[1,0.5]];portConstraint=eastwest;" parent="rdV9_6l6kC6E4xn4P61S-2" vertex="1">
          <mxGeometry y="26" width="210" height="84" as="geometry" />
        </mxCell>
        <mxCell id="iOxPWpz1RouKTi9r0qk_-1" value="&amp;nbsp;Choose Pending Appointment" style="swimlane;html=1;fontStyle=0;childLayout=stackLayout;horizontal=1;startSize=26;fillColor=#e0e0e0;horizontalStack=0;resizeParent=1;resizeLast=0;collapsible=1;marginBottom=0;swimlaneFillColor=#ffffff;align=center;rounded=1;shadow=0;comic=0;labelBackgroundColor=none;strokeWidth=1;fontFamily=Verdana;fontSize=12" parent="1" vertex="1">
          <mxGeometry x="400" y="240" width="210" height="110" as="geometry" />
        </mxCell>
        <mxCell id="iOxPWpz1RouKTi9r0qk_-2" value="&lt;i&gt;&lt;u&gt;var ChosenTimeByClient;&lt;br&gt;boolean TimeAvailable;&lt;br&gt;var TimeSlotFree;&lt;/u&gt;&lt;/i&gt;&lt;br&gt;&lt;br&gt;do: select pending appointment" style="text;html=1;strokeColor=none;fillColor=none;spacingLeft=4;spacingRight=4;whiteSpace=wrap;overflow=hidden;rotatable=0;points=[[0,0.5],[1,0.5]];portConstraint=eastwest;" parent="iOxPWpz1RouKTi9r0qk_-1" vertex="1">
          <mxGeometry y="26" width="210" height="84" as="geometry" />
        </mxCell>
        <mxCell id="21ea969265ad0168-6" value="Dashboard" style="swimlane;html=1;fontStyle=0;childLayout=stackLayout;horizontal=1;startSize=26;fillColor=#e0e0e0;horizontalStack=0;resizeParent=1;resizeLast=0;collapsible=1;marginBottom=0;swimlaneFillColor=#ffffff;align=center;rounded=1;shadow=0;comic=0;labelBackgroundColor=none;strokeWidth=1;fontFamily=Verdana;fontSize=12" parent="1" vertex="1">
          <mxGeometry x="160" y="59" width="160" height="106" as="geometry" />
        </mxCell>
        <mxCell id="21ea969265ad0168-8" value="&lt;br&gt;entry:logged in&lt;br&gt;display:dashboard content" style="text;html=1;strokeColor=none;fillColor=none;spacingLeft=4;spacingRight=4;whiteSpace=wrap;overflow=hidden;rotatable=0;points=[[0,0.5],[1,0.5]];portConstraint=eastwest;" parent="21ea969265ad0168-6" vertex="1">
          <mxGeometry y="26" width="160" height="54" as="geometry" />
        </mxCell>
        <mxCell id="rdV9_6l6kC6E4xn4P61S-29" value="" style="ellipse;html=1;shape=endState;fillColor=#000000;strokeColor=#ff0000;" parent="1" vertex="1">
          <mxGeometry x="620" y="1060" width="30" height="30" as="geometry" />
        </mxCell>
        <mxCell id="iOxPWpz1RouKTi9r0qk_-9" value="" style="endArrow=classic;html=1;entryX=0.25;entryY=0;entryDx=0;entryDy=0;exitX=0;exitY=0;exitDx=0;exitDy=0;" parent="1" source="iOxPWpz1RouKTi9r0qk_-12" target="iOxPWpz1RouKTi9r0qk_-21" edge="1">
          <mxGeometry width="50" height="50" relative="1" as="geometry">
            <mxPoint x="580" y="340" as="sourcePoint" />
            <mxPoint x="549" y="395" as="targetPoint" />
          </mxGeometry>
        </mxCell>
        <mxCell id="iOxPWpz1RouKTi9r0qk_-12" value="accept[ChosenTimeByClient= TimeSlotFree]" style="text;html=1;strokeColor=none;fillColor=none;align=center;verticalAlign=middle;whiteSpace=wrap;rounded=0;" parent="1" vertex="1">
          <mxGeometry x="575" y="350" width="280" height="20" as="geometry" />
        </mxCell>
        <mxCell id="iOxPWpz1RouKTi9r0qk_-24" value="" style="endArrow=classic;html=1;exitX=0.219;exitY=1.014;exitDx=0;exitDy=0;exitPerimeter=0;" parent="1" source="iOxPWpz1RouKTi9r0qk_-2" edge="1">
          <mxGeometry width="50" height="50" relative="1" as="geometry">
            <mxPoint x="440" y="340" as="sourcePoint" />
            <mxPoint x="447" y="387" as="targetPoint" />
          </mxGeometry>
        </mxCell>
        <mxCell id="iOxPWpz1RouKTi9r0qk_-25" value="reschedule&lt;br&gt;[ TimeAvailable=true&lt;br&gt;sizeof(TimeSlotProposed)&amp;lt;=2]" style="text;html=1;strokeColor=none;fillColor=none;align=center;verticalAlign=middle;whiteSpace=wrap;rounded=0;rotation=0;" parent="1" vertex="1">
          <mxGeometry x="170" y="510" width="190" height="20" as="geometry" />
        </mxCell>
        <mxCell id="iOxPWpz1RouKTi9r0qk_-42" value="[AppointmentAccepted]" style="text;html=1;strokeColor=none;fillColor=none;align=center;verticalAlign=middle;whiteSpace=wrap;rounded=0;" parent="1" vertex="1">
          <mxGeometry x="855" y="640" width="40" height="20" as="geometry" />
        </mxCell>
        <mxCell id="iOxPWpz1RouKTi9r0qk_-48" value="" style="endArrow=classic;html=1;exitX=1;exitY=0.5;exitDx=0;exitDy=0;entryX=1;entryY=0.043;entryDx=0;entryDy=0;entryPerimeter=0;" parent="1" target="mAmqgvCDSEABrybZSbF8-35" edge="1">
          <mxGeometry width="50" height="50" relative="1" as="geometry">
            <mxPoint x="700" y="439" as="sourcePoint" />
            <mxPoint x="401" y="1040" as="targetPoint" />
            <Array as="points">
              <mxPoint x="810" y="439" />
              <mxPoint x="810" y="1020" />
              <mxPoint x="600" y="1020" />
            </Array>
          </mxGeometry>
        </mxCell>
        <mxCell id="iOxPWpz1RouKTi9r0qk_-11" value="reject [ChosenTimeByClient != TimeSlotFree]" style="text;html=1;strokeColor=none;fillColor=none;align=center;verticalAlign=middle;whiteSpace=wrap;rounded=0;" parent="1" vertex="1">
          <mxGeometry x="180" y="360" width="280" height="20" as="geometry" />
        </mxCell>
        <mxCell id="mAmqgvCDSEABrybZSbF8-1" value="Appointment rejection" style="swimlane;html=1;fontStyle=0;childLayout=stackLayout;horizontal=1;startSize=26;fillColor=#e0e0e0;horizontalStack=0;resizeParent=1;resizeLast=0;collapsible=1;marginBottom=0;swimlaneFillColor=#ffffff;align=center;rounded=1;shadow=0;comic=0;labelBackgroundColor=none;strokeWidth=1;fontFamily=Verdana;fontSize=12" parent="1" vertex="1">
          <mxGeometry x="350" y="390" width="160" height="110" as="geometry" />
        </mxCell>
        <mxCell id="mAmqgvCDSEABrybZSbF8-2" value="&lt;i&gt;&lt;u&gt;var TimeSlotProposed;&lt;br&gt;&lt;br&gt;&lt;/u&gt;&lt;/i&gt;do: choose to reject&lt;br&gt;exit: show rejection options" style="text;html=1;strokeColor=none;fillColor=none;spacingLeft=4;spacingRight=4;whiteSpace=wrap;overflow=hidden;rotatable=0;points=[[0,0.5],[1,0.5]];portConstraint=eastwest;" parent="mAmqgvCDSEABrybZSbF8-1" vertex="1">
          <mxGeometry y="26" width="160" height="74" as="geometry" />
        </mxCell>
        <mxCell id="mAmqgvCDSEABrybZSbF8-10" value="[PendingAppointment&amp;gt;0]" style="text;html=1;strokeColor=none;fillColor=none;align=center;verticalAlign=middle;whiteSpace=wrap;rounded=0;" parent="1" vertex="1">
          <mxGeometry x="640" y="190" width="40" height="20" as="geometry" />
        </mxCell>
        <mxCell id="mAmqgvCDSEABrybZSbF8-15" value="" style="endArrow=classic;html=1;entryX=0.5;entryY=0;entryDx=0;entryDy=0;" parent="1" target="iOxPWpz1RouKTi9r0qk_-31" edge="1">
          <mxGeometry width="50" height="50" relative="1" as="geometry">
            <mxPoint x="278" y="710" as="sourcePoint" />
            <mxPoint x="290" y="730" as="targetPoint" />
          </mxGeometry>
        </mxCell>
        <mxCell id="iOxPWpz1RouKTi9r0qk_-31" value="Rescheduling Request Sent" style="swimlane;html=1;fontStyle=0;childLayout=stackLayout;horizontal=1;startSize=26;fillColor=#e0e0e0;horizontalStack=0;resizeParent=1;resizeLast=0;collapsible=1;marginBottom=0;swimlaneFillColor=#ffffff;align=center;rounded=1;shadow=0;comic=0;labelBackgroundColor=none;strokeWidth=1;fontFamily=Verdana;fontSize=12" parent="1" vertex="1">
          <mxGeometry x="180" y="800" width="195" height="110" as="geometry" />
        </mxCell>
        <mxCell id="iOxPWpz1RouKTi9r0qk_-33" value="&lt;i&gt;&lt;u&gt;boolean RequestConfirmation ;&lt;br&gt;var Status= &quot;pending&quot;&lt;/u&gt;&lt;/i&gt;&lt;br&gt;&lt;br&gt;do:sent Request" style="text;html=1;strokeColor=none;fillColor=none;spacingLeft=4;spacingRight=4;whiteSpace=wrap;overflow=hidden;rotatable=0;points=[[0,0.5],[1,0.5]];portConstraint=eastwest;" parent="iOxPWpz1RouKTi9r0qk_-31" vertex="1">
          <mxGeometry y="26" width="195" height="84" as="geometry" />
        </mxCell>
        <mxCell id="mAmqgvCDSEABrybZSbF8-19" value="[RequestConfirmation]=false;" style="text;html=1;strokeColor=none;fillColor=none;align=center;verticalAlign=middle;whiteSpace=wrap;rounded=0;rotation=0;" parent="1" vertex="1">
          <mxGeometry x="375" y="830" width="170" height="20" as="geometry" />
        </mxCell>
        <mxCell id="mAmqgvCDSEABrybZSbF8-36" value="[RequestConfirmation=true];" style="text;html=1;strokeColor=none;fillColor=none;align=center;verticalAlign=middle;whiteSpace=wrap;rounded=0;rotation=0;" parent="1" vertex="1">
          <mxGeometry x="110" y="930" width="170" height="20" as="geometry" />
        </mxCell>
        <mxCell id="mAmqgvCDSEABrybZSbF8-40" value="send request[ReschedulingSuccessful]" style="text;html=1;strokeColor=none;fillColor=none;align=center;verticalAlign=middle;whiteSpace=wrap;rounded=0;rotation=0;" parent="1" vertex="1">
          <mxGeometry x="130" y="740" width="100" height="20" as="geometry" />
        </mxCell>
        <mxCell id="mAmqgvCDSEABrybZSbF8-38" value="Rescheduling" style="swimlane;html=1;fontStyle=0;childLayout=stackLayout;horizontal=1;startSize=26;fillColor=#e0e0e0;horizontalStack=0;resizeParent=1;resizeLast=0;collapsible=1;marginBottom=0;swimlaneFillColor=#ffffff;align=center;rounded=1;shadow=0;comic=0;labelBackgroundColor=none;strokeWidth=1;fontFamily=Verdana;fontSize=12" parent="1" vertex="1">
          <mxGeometry x="197.5" y="590" width="160" height="140" as="geometry" />
        </mxCell>
        <mxCell id="mAmqgvCDSEABrybZSbF8-39" value="&lt;br&gt;&lt;br&gt;do:propose time slots&lt;br&gt;exit:send request with time slots" style="text;html=1;strokeColor=none;fillColor=none;spacingLeft=4;spacingRight=4;whiteSpace=wrap;overflow=hidden;rotatable=0;points=[[0,0.5],[1,0.5]];portConstraint=eastwest;" parent="mAmqgvCDSEABrybZSbF8-38" vertex="1">
          <mxGeometry y="26" width="160" height="104" as="geometry" />
        </mxCell>
        <mxCell id="iOxPWpz1RouKTi9r0qk_-21" value="Appointment approval" style="swimlane;html=1;fontStyle=0;childLayout=stackLayout;horizontal=1;startSize=26;fillColor=#e0e0e0;horizontalStack=0;resizeParent=1;resizeLast=0;collapsible=1;marginBottom=0;swimlaneFillColor=#ffffff;align=center;rounded=1;shadow=0;comic=0;labelBackgroundColor=none;strokeWidth=1;fontFamily=Verdana;fontSize=12" parent="1" vertex="1">
          <mxGeometry x="540" y="400" width="160" height="90" as="geometry" />
        </mxCell>
        <mxCell id="iOxPWpz1RouKTi9r0qk_-23" value="&lt;br&gt;do: accept&lt;br&gt;exit: update calendar" style="text;html=1;strokeColor=none;fillColor=none;spacingLeft=4;spacingRight=4;whiteSpace=wrap;overflow=hidden;rotatable=0;points=[[0,0.5],[1,0.5]];portConstraint=eastwest;" parent="iOxPWpz1RouKTi9r0qk_-21" vertex="1">
          <mxGeometry y="26" width="160" height="54" as="geometry" />
        </mxCell>
        <mxCell id="mAmqgvCDSEABrybZSbF8-42" value="" style="endArrow=classic;html=1;strokeColor=#000000;" parent="1" edge="1">
          <mxGeometry width="50" height="50" relative="1" as="geometry">
            <mxPoint x="370" y="1070" as="sourcePoint" />
            <mxPoint x="620" y="1070" as="targetPoint" />
          </mxGeometry>
        </mxCell>
        <mxCell id="mAmqgvCDSEABrybZSbF8-43" value="" style="endArrow=classic;html=1;entryX=0.5;entryY=0;entryDx=0;entryDy=0;" parent="1" target="rdV9_6l6kC6E4xn4P61S-29" edge="1">
          <mxGeometry width="50" height="50" relative="1" as="geometry">
            <mxPoint x="634.5" y="900" as="sourcePoint" />
            <mxPoint x="634.5" y="1050" as="targetPoint" />
          </mxGeometry>
        </mxCell>
        <mxCell id="iOxPWpz1RouKTi9r0qk_-34" value="Appointment Eliminated" style="swimlane;html=1;fontStyle=0;childLayout=stackLayout;horizontal=1;startSize=26;fillColor=#e0e0e0;horizontalStack=0;resizeParent=1;resizeLast=0;collapsible=1;marginBottom=0;swimlaneFillColor=#ffffff;align=center;rounded=1;shadow=0;comic=0;labelBackgroundColor=none;strokeWidth=1;fontFamily=Verdana;fontSize=12" parent="1" vertex="1">
          <mxGeometry x="545" y="790" width="210" height="110" as="geometry" />
        </mxCell>
        <mxCell id="iOxPWpz1RouKTi9r0qk_-35" value="&lt;br&gt;&lt;br&gt;&amp;nbsp; display appointment in&amp;nbsp; cancelled appointments" style="text;html=1;strokeColor=none;fillColor=none;spacingLeft=4;spacingRight=4;whiteSpace=wrap;overflow=hidden;rotatable=0;points=[[0,0.5],[1,0.5]];portConstraint=eastwest;" parent="iOxPWpz1RouKTi9r0qk_-34" vertex="1">
          <mxGeometry y="26" width="210" height="84" as="geometry" />
        </mxCell>
        <mxCell id="mAmqgvCDSEABrybZSbF8-34" value="Calendar Updated" style="swimlane;html=1;fontStyle=0;childLayout=stackLayout;horizontal=1;startSize=26;fillColor=#e0e0e0;horizontalStack=0;resizeParent=1;resizeLast=0;collapsible=1;marginBottom=0;swimlaneFillColor=#ffffff;align=center;rounded=1;shadow=0;comic=0;labelBackgroundColor=none;strokeWidth=1;fontFamily=Verdana;fontSize=12" parent="1" vertex="1">
          <mxGeometry x="170" y="990" width="230" height="120" as="geometry" />
        </mxCell>
        <mxCell id="mAmqgvCDSEABrybZSbF8-35" value="&lt;i&gt;&lt;u&gt;Status=&quot;Request accepted&quot;;&lt;br&gt;&lt;br&gt;&lt;/u&gt;&lt;/i&gt;entry: read accepted appointment&lt;br&gt;do:&amp;nbsp;display Accepted Appointment;" style="text;html=1;strokeColor=none;fillColor=none;spacingLeft=4;spacingRight=4;whiteSpace=wrap;overflow=hidden;rotatable=0;points=[[0,0.5],[1,0.5]];portConstraint=eastwest;" parent="mAmqgvCDSEABrybZSbF8-34" vertex="1">
          <mxGeometry y="26" width="230" height="94" as="geometry" />
        </mxCell>
        <mxCell id="mAmqgvCDSEABrybZSbF8-46" value="" style="endArrow=classic;html=1;" parent="1" edge="1">
          <mxGeometry width="50" height="50" relative="1" as="geometry">
            <mxPoint x="277.5" y="910" as="sourcePoint" />
            <mxPoint x="277" y="990" as="targetPoint" />
          </mxGeometry>
        </mxCell>
        <mxCell id="mAmqgvCDSEABrybZSbF8-47" value="" style="endArrow=classic;html=1;strokeColor=#000000;entryX=0;entryY=0.429;entryDx=0;entryDy=0;entryPerimeter=0;" parent="1" target="iOxPWpz1RouKTi9r0qk_-35" edge="1">
          <mxGeometry width="50" height="50" relative="1" as="geometry">
            <mxPoint x="374" y="852" as="sourcePoint" />
            <mxPoint x="545" y="858" as="targetPoint" />
          </mxGeometry>
        </mxCell>
        <mxCell id="U77gCxGZ6TeTki7mq9k0-1" value="" style="endArrow=classic;html=1;strokeColor=#000000;entryX=0.129;entryY=-0.018;entryDx=0;entryDy=0;entryPerimeter=0;" parent="1" target="iOxPWpz1RouKTi9r0qk_-34" edge="1">
          <mxGeometry width="50" height="50" relative="1" as="geometry">
            <mxPoint x="500" y="500" as="sourcePoint" />
            <mxPoint x="545" y="590" as="targetPoint" />
          </mxGeometry>
        </mxCell>
        <mxCell id="U77gCxGZ6TeTki7mq9k0-2" value="cancel [TimeAvailable=false]" style="text;html=1;strokeColor=none;fillColor=none;align=center;verticalAlign=middle;whiteSpace=wrap;rounded=0;" parent="1" vertex="1">
          <mxGeometry x="545" y="630" width="155" height="20" as="geometry" />
        </mxCell>
      </root>
    </mxGraphModel>
  </diagram>
</mxfile>
